<svg width="31" height="28" viewBox="0 0 31 28" fill="none" xmlns="http://www.w3.org/2000/svg">
<path d="M15.5 19.55C17.7367 19.55 19.55 17.7368 19.55 15.5C19.55 13.2632 17.7367 11.45 15.5 11.45C13.2632 11.45 11.45 13.2632 11.45 15.5C11.45 17.7368 13.2632 19.55 15.5 19.55Z" stroke="white" stroke-width="2.025"/>
<path d="M2 15.9909C2 11.8542 2 9.78573 3.01118 8.29991C3.44893 7.65669 4.01143 7.1044 4.66657 6.67462C5.63899 6.03668 6.8564 5.80866 8.7203 5.72716C9.60975 5.72716 10.3756 5.06542 10.55 4.20909C10.8117 2.9246 11.9604 2 13.2945 2H17.7055C19.0396 2 20.1883 2.9246 20.45 4.20909C20.6245 5.06542 21.3902 5.72716 22.2797 5.72716C24.1436 5.80866 25.3609 6.03668 26.3335 6.67462C26.9885 7.1044 27.551 7.65669 27.9888 8.29991C29 9.78573 29 11.8542 29 15.9909C29 20.1277 29 22.1961 27.9888 23.6819C27.551 24.3251 26.9885 24.8774 26.3335 25.3072C24.8201 26.3 22.7135 26.3 18.5 26.3H12.5C8.28661 26.3 6.17992 26.3 4.66657 25.3072C4.01143 24.8774 3.44893 24.3251 3.01118 23.6819C2.72557 23.2622 2.52064 22.7961 2.37359 22.25" stroke="white" stroke-width="2.025" stroke-linecap="round"/>
<path d="M24.9501 11.45H23.6001" stroke="white" stroke-width="2.025" stroke-linecap="round"/>
</svg>
