<svg width="80" height="80" viewBox="0 0 80 80" fill="none" xmlns="http://www.w3.org/2000/svg">
<path d="M40 63.75C50.4933 63.75 59 55.2433 59 44.75C59 34.2567 50.4933 25.75 40 25.75C29.5066 25.75 21 34.2567 21 44.75C21 55.2433 29.5066 63.75 40 63.75Z" stroke="#327BE5" stroke-width="2.62" stroke-linecap="round" stroke-linejoin="round"/>
<path d="M2.00002 32.4C1.99417 29.0998 3.06258 25.8873 5.04379 23.2479C7.02503 20.6086 9.81142 18.6859 12.982 17.7701C16.1202 16.852 18.8788 14.9461 20.848 12.3359L24.04 8.07992C25.4559 6.19212 27.2918 4.65981 29.4024 3.60451C31.5131 2.54921 33.8402 2 36.2 2H43.8C46.1598 2 48.4869 2.54921 50.5978 3.60451C52.7083 4.65981 54.5441 6.19212 55.96 8.07992L59.19 12.3359C61.1436 14.9623 63.9081 16.8723 67.056 17.7701C70.2195 18.6928 72.9977 20.6184 74.9714 23.2572C76.9455 25.8959 78.0083 29.1047 78 32.4L75.454 62.8C75.0459 66.9078 73.1459 70.7234 70.1135 73.5247C67.0811 76.3257 63.1272 77.9179 59 78H21C16.8728 77.9179 12.9189 76.3257 9.88662 73.5247C6.85437 70.7234 4.95433 66.9078 4.54606 62.8L2.00002 32.4Z" stroke="white" stroke-width="2.62" stroke-linecap="round" stroke-linejoin="round"/>
</svg>
