<svg width="80" height="80" viewBox="0 0 80 80" fill="none" xmlns="http://www.w3.org/2000/svg">
<path d="M24.4793 55.5796C22.2462 52.4108 21.0513 48.6267 21.0594 44.75C21.0533 41.2741 22.0007 37.8636 23.7984 34.889C25.5961 31.9144 28.1752 29.49 31.2552 27.8795C34.335 26.269 37.7979 25.5342 41.2662 25.755C44.7348 25.9758 48.0766 27.1439 50.9273 29.1319" stroke="#327BE5" stroke-width="2.62" stroke-linecap="round" stroke-linejoin="round"/>
<path d="M57.9156 38.2516C58.684 40.3314 59.0704 42.5331 59.0556 44.75C59.0556 49.7892 57.0538 54.6216 53.4905 58.1849C49.9273 61.7482 45.0948 63.75 40.0556 63.75C37.8406 63.7428 35.6427 63.3571 33.5576 62.61" stroke="#327BE5" stroke-width="2.62" stroke-linecap="round" stroke-linejoin="round"/>
<path d="M74.0639 22.1017C76.638 24.9127 78.0623 28.5885 78.0539 32.4L75.5079 62.8C75.0994 66.9078 73.1994 70.7234 70.1674 73.5247C67.135 76.3257 63.1811 77.9179 59.0539 78H21.0539C20.1749 78.0011 19.2975 77.9247 18.4319 77.7716" stroke="white" stroke-width="2.62" stroke-linecap="round" stroke-linejoin="round"/>
<path d="M8.28638 71.768C6.13413 69.2512 4.80755 66.1337 4.48638 62.838L1.94045 32.438C1.9346 29.1378 3.00301 25.9253 4.98422 23.2859C6.96546 20.6466 9.75177 18.7234 12.9224 17.8076C16.0606 16.8895 18.8191 14.9842 20.7884 12.3739L23.9804 8.11795C25.3962 6.23015 27.2321 4.69783 29.3427 3.64254C31.4533 2.58724 33.7808 2.03802 36.1406 2.03802H43.7406C46.1 2.03802 48.4275 2.58724 50.538 3.64254C52.6486 4.69783 54.4847 6.23015 55.9002 8.11795L59.1302 12.3739C60.3504 13.9331 61.8761 15.2263 63.6142 16.1739" stroke="white" stroke-width="2.62" stroke-linecap="round" stroke-linejoin="round"/>
<path d="M78.0596 2L2.05957 78" stroke="white" stroke-width="2.62" stroke-linecap="round" stroke-linejoin="round"/>
</svg>
