<svg width="138" height="138" viewBox="0 0 138 138" fill="none" xmlns="http://www.w3.org/2000/svg">
<path d="M69 137H137" stroke="white" stroke-width="1.36683" stroke-linecap="round"/>
<path d="M79.2 38.4C79.2 44.0333 74.6331 48.6 69 48.6C63.3669 48.6 58.8 44.0333 58.8 38.4C58.8 32.7666 63.3669 28.2 69 28.2C74.6331 28.2 79.2 32.7666 79.2 38.4Z" stroke="#327BE5" stroke-width="1.36683"/>
<path d="M79.2 99.6C79.2 105.233 74.6331 109.8 69 109.8C63.3669 109.8 58.8 105.233 58.8 99.6C58.8 93.9668 63.3669 89.4 69 89.4C74.6331 89.4 79.2 93.9668 79.2 99.6Z" stroke="#327BE5" stroke-width="1.36683"/>
<path d="M38.4 58.8C44.0333 58.8 48.6 63.3668 48.6 69C48.6 74.6331 44.0333 79.2 38.4 79.2C32.7667 79.2 28.2 74.6331 28.2 69C28.2 63.3668 32.7667 58.8 38.4 58.8Z" stroke="#327BE5" stroke-width="1.36683"/>
<path d="M99.6 58.8C105.233 58.8 109.8 63.3668 109.8 69C109.8 74.6331 105.233 79.2 99.6 79.2C93.9669 79.2 89.4 74.6331 89.4 69C89.4 63.3668 93.9669 58.8 99.6 58.8Z" stroke="#327BE5" stroke-width="1.36683"/>
<path d="M35 10.0972C45.0019 4.3114 56.6145 1 69 1C106.555 1 137 31.4446 137 69C137 106.555 106.555 137 69 137C31.4446 137 1 106.555 1 69C1 56.6145 4.3114 45.0019 10.0972 35" stroke="white" stroke-width="1.36683" stroke-linecap="round"/>
</svg>
