<svg width="85" height="78" viewBox="0 0 85 78" fill="none" xmlns="http://www.w3.org/2000/svg">
<path d="M36.7901 74.9863H18.2192C13.9176 74.9863 9.79218 73.2772 6.75048 70.2357C3.70877 67.1938 2 63.0689 2 58.7671V18.2192C2 13.9176 3.70877 9.7919 6.75048 6.75023C9.79218 3.70853 13.9176 2 18.2192 2" stroke="#191F24" stroke-width="3" stroke-linecap="round" stroke-linejoin="round"/>
<path d="M18.2192 2H26.3288C29.1593 2.01707 31.936 2.77451 34.383 4.19717C36.8299 5.61984 38.8622 7.65826 40.2773 10.1096C41.7249 12.5682 43.7867 14.6083 46.2606 16.0299C48.734 17.4516 51.5351 18.2061 54.388 18.2192H66.8768C71.1785 18.2192 75.3038 19.9277 78.3453 22.9694C81.3873 26.0111 83.0959 30.1367 83.0959 34.4384" stroke="#191F24" stroke-width="3" stroke-linecap="round" stroke-linejoin="round"/>
<path d="M53.6987 76L80.0549 49.6438" stroke="#191F24" stroke-width="3" stroke-linecap="round" stroke-linejoin="round"/>
<path d="M53.6987 49.6438L80.0549 76" stroke="#191F24" stroke-width="3" stroke-linecap="round" stroke-linejoin="round"/>
</svg>
