<svg width="21" height="20" viewBox="0 0 21 20" fill="none" xmlns="http://www.w3.org/2000/svg">
<path d="M20.3055 8.0415H19.5V8H10.5V12H16.1515C15.327 14.3285 13.1115 16 10.5 16C7.1865 16 4.5 13.3135 4.5 10C4.5 6.6865 7.1865 4 10.5 4C12.0295 4 13.421 4.577 14.4805 5.5195L17.309 2.691C15.523 1.0265 13.134 0 10.5 0C4.9775 0 0.5 4.4775 0.5 10C0.5 15.5225 4.9775 20 10.5 20C16.0225 20 20.5 15.5225 20.5 10C20.5 9.3295 20.431 8.675 20.3055 8.0415Z" fill="#FFC107"/>
<path d="M1.65308 5.3455L4.93858 7.755C5.82758 5.554 7.98058 4 10.5001 4C12.0296 4 13.4211 4.577 14.4806 5.5195L17.3091 2.691C15.5231 1.0265 13.1341 0 10.5001 0C6.65908 0 3.32808 2.1685 1.65308 5.3455Z" fill="#FF3D00"/>
<path d="M10.4999 20.0003C13.0829 20.0003 15.4299 19.0118 17.2044 17.4043L14.1094 14.7853C13.0717 15.5745 11.8036 16.0014 10.4999 16.0003C7.89891 16.0003 5.69041 14.3418 4.85841 12.0273L1.59741 14.5398C3.25241 17.7783 6.61341 20.0003 10.4999 20.0003Z" fill="#4CAF50"/>
<path d="M20.3055 8.0415H19.5V8H10.5V12H16.1515C15.7571 13.1082 15.0467 14.0766 14.108 14.7855L14.1095 14.7845L17.2045 17.4035C16.9855 17.6025 20.5 15 20.5 10C20.5 9.3295 20.431 8.675 20.3055 8.0415Z" fill="#1976D2"/>
</svg>
