<svg width="29" height="29" viewBox="0 0 29 29" fill="none" xmlns="http://www.w3.org/2000/svg">
<path d="M24.7083 7.75001C25.017 5.98857 23.6615 4.37501 21.8733 4.37501H7.1261C5.33782 4.37501 3.9824 5.98857 4.29104 7.75001" stroke="#4C4E53" stroke-width="1.5"/>
<path d="M21.9248 4.375C21.9632 4.02524 21.9824 3.85032 21.9826 3.70587C21.9857 2.32397 20.9447 1.16286 19.5707 1.01542C19.4271 1 19.2512 1 18.8994 1H10.1003C9.74844 1 9.5725 1 9.42886 1.01542C8.05486 1.16286 7.01396 2.32397 7.01697 3.70586C7.01728 3.85032 7.03644 4.02522 7.07474 4.375" stroke="#4C4E53" stroke-width="1.5"/>
<path d="M26.9112 20.9706C26.439 24.3198 26.203 25.9943 24.9918 26.9972C23.7806 28 21.9941 28 18.4212 28H10.5787C7.0059 28 5.21947 28 4.00826 26.9972C2.79705 25.9943 2.56095 24.3198 2.08875 20.9706L1.51774 16.9206C0.915599 12.6497 0.614535 10.5143 1.89413 9.13218C3.17373 7.75001 5.45174 7.75001 10.0077 7.75001H18.9923C23.5483 7.75001 25.8263 7.75001 27.1059 9.13218C28.1168 10.2241 28.1411 11.7862 27.8099 14.5" stroke="#4C4E53" stroke-width="1.5" stroke-linecap="round"/>
<path d="M17.9846 16.6815C18.7384 17.1489 18.7384 18.3586 17.9846 18.826L13.4329 21.6476C12.7002 22.1017 11.7999 21.5107 11.7999 20.5754V14.932C11.7999 13.9969 12.7002 13.4057 13.4329 13.8598L17.9846 16.6815Z" stroke="#4C4E53" stroke-width="1.5"/>
</svg>
