<svg width="140" height="140" viewBox="0 0 140 140" fill="none" xmlns="http://www.w3.org/2000/svg">
<path d="M121.42 36C122.975 27.1276 116.147 19 107.14 19H32.8576C23.85 19 17.0227 27.1276 18.5773 36" stroke="white" stroke-width="2.02049"/>
<path d="M107.399 19C107.592 17.2383 107.689 16.3572 107.69 15.6296C107.706 8.6689 102.463 2.82035 95.5415 2.07766C94.818 2 93.9319 2 92.1599 2H47.8388C46.0664 2 45.1802 2 44.4566 2.07766C37.5357 2.82035 32.2927 8.6689 32.3079 15.6295C32.3095 16.3572 32.4059 17.2381 32.5989 19" stroke="white" stroke-width="2.02049"/>
<path d="M132.516 102.592C130.137 119.463 128.949 127.897 122.848 132.949C116.747 138 107.748 138 89.7513 138H50.2485C32.2519 138 23.2536 138 17.1527 132.949C11.0518 127.897 9.86257 119.463 7.48407 102.592L4.60787 82.1924C1.57487 60.6799 0.0583976 49.924 6.50378 42.962C12.9492 36 24.4235 36 47.3723 36H92.6277C115.576 36 127.051 36 133.496 42.962C138.588 48.4622 138.711 56.3306 137.043 70" stroke="white" stroke-width="2.02049" stroke-linecap="round"/>
<path d="M87.5522 80.9881C91.3493 83.3423 91.3493 89.4358 87.5522 91.7899L64.6253 106.003C60.9349 108.29 56.4 105.313 56.4 100.602V72.176C56.4 67.4657 60.9349 64.4879 64.6253 66.7755L87.5522 80.9881Z" stroke="#327BE5" stroke-width="2.02049"/>
</svg>
