<svg width="21" height="29" viewBox="0 0 21 29" fill="none" xmlns="http://www.w3.org/2000/svg">
<path d="M10.2887 13.0894C10.1524 13.0757 9.98881 13.0757 9.83889 13.0894C6.59501 12.9803 4.01904 10.3226 4.01904 7.05149C4.01904 3.71227 6.71768 1 10.0706 1C13.4098 1 16.1221 3.71227 16.1221 7.05149C16.1084 10.3226 13.5325 12.9803 10.2887 13.0894Z" stroke="#4C4E53" stroke-width="1.5" stroke-linecap="round" stroke-linejoin="round"/>
<path d="M3.47375 18.1186C0.175416 20.3266 0.175416 23.9248 3.47375 26.1191C7.22186 28.627 13.3688 28.627 17.1169 26.1191C20.4152 23.9112 20.4152 20.313 17.1169 18.1186C13.3824 15.6244 7.23549 15.6244 3.47375 18.1186Z" stroke="#4C4E53" stroke-width="1.5" stroke-linecap="round" stroke-linejoin="round"/>
</svg>
