<svg width="24" height="27" viewBox="0 0 24 27" fill="none" xmlns="http://www.w3.org/2000/svg">
<path d="M14.9583 23.3333L17.75 26.125L23.3333 20.5417M12.1667 1H5.46667C3.90319 1 3.12144 1 2.52428 1.30428C1.99898 1.57191 1.57191 1.99898 1.30428 2.52428C1 3.12144 1 3.90319 1 5.46667V21.6583C1 23.2218 1 24.0036 1.30428 24.6008C1.57191 25.126 1.99898 25.5531 2.52428 25.8207C3.12144 26.125 3.90319 26.125 5.46667 26.125H10.0729M12.1667 1L20.5417 9.375M12.1667 1V7.14167C12.1667 7.9234 12.1667 8.31428 12.3188 8.61286C12.4527 8.8755 12.6661 9.08904 12.9288 9.22287C13.2274 9.375 13.6182 9.375 14.4 9.375H20.5417M20.5417 9.375V15.5167M6.58333 20.5417H10.0729M6.58333 14.9583H14.9583M6.58333 9.375H7.97917" stroke="#F7F7F7" stroke-width="1.16133" stroke-linecap="round" stroke-linejoin="round"/>
</svg>
