<svg width="105" height="27" viewBox="0 0 105 27" fill="none" xmlns="http://www.w3.org/2000/svg">
<path d="M6.67016 21.1647C5.4624 21.1647 4.30953 21 3.21156 20.6706C2.13189 20.3412 1.28096 19.9386 0.658782 19.4628L1.75675 17.3767C2.37893 17.7976 3.14751 18.1544 4.06249 18.4472C4.97746 18.74 5.91074 18.8864 6.86231 18.8864C8.08837 18.8864 8.96675 18.7126 9.49744 18.3649C10.0464 18.0172 10.3209 17.5322 10.3209 16.9101C10.3209 16.4526 10.1562 16.0957 9.82683 15.8395C9.49744 15.5834 9.05825 15.3912 8.50926 15.2631C7.97858 15.135 7.38384 15.0252 6.72506 14.9337C6.06628 14.8239 5.4075 14.6958 4.74872 14.5494C4.08994 14.3847 3.48605 14.1651 2.93707 13.8906C2.38808 13.5979 1.9489 13.2044 1.6195 12.7103C1.29011 12.1979 1.12542 11.5209 1.12542 10.6791C1.12542 9.80071 1.37246 9.03213 1.86655 8.37335C2.36063 7.71457 3.05601 7.21133 3.95269 6.86364C4.86766 6.49765 5.94733 6.31466 7.1917 6.31466C8.14327 6.31466 9.104 6.43361 10.0739 6.6715C11.062 6.89109 11.8672 7.21133 12.4894 7.63222L11.364 9.71836C10.7052 9.27918 10.019 8.97723 9.30529 8.81254C8.59161 8.64784 7.87793 8.5655 7.16425 8.5655C6.01138 8.5655 5.15131 8.75764 4.58402 9.14193C4.01674 9.50792 3.7331 9.98371 3.7331 10.5693C3.7331 11.0634 3.89779 11.4477 4.22718 11.7222C4.57487 11.9784 5.01406 12.1796 5.54475 12.326C6.09373 12.4724 6.69761 12.6005 7.35639 12.7103C8.01518 12.8018 8.67396 12.9299 9.33274 13.0946C9.99152 13.241 10.5863 13.4515 11.1169 13.726C11.6659 14.0004 12.1051 14.3847 12.4345 14.8788C12.7822 15.3729 12.956 16.0317 12.956 16.8552C12.956 17.7335 12.6998 18.493 12.1875 19.1335C11.6751 19.7739 10.9522 20.2772 10.019 20.6432C9.0857 20.9909 7.96943 21.1647 6.67016 21.1647ZM15.4258 21V6.45191H18.061V21H15.4258ZM16.7434 3.65208C16.231 3.65208 15.801 3.48739 15.4533 3.158C15.1239 2.82861 14.9592 2.42602 14.9592 1.95023C14.9592 1.45615 15.1239 1.04441 15.4533 0.715015C15.801 0.385625 16.231 0.220929 16.7434 0.220929C17.2558 0.220929 17.6767 0.385625 18.0061 0.715015C18.3537 1.02611 18.5276 1.41954 18.5276 1.89533C18.5276 2.38942 18.3629 2.81031 18.0335 3.158C17.7041 3.48739 17.2741 3.65208 16.7434 3.65208ZM29.9821 21.1647C28.7743 21.1647 27.6672 20.8902 26.6607 20.3412C25.6725 19.7739 24.8765 18.9413 24.2726 17.8433C23.687 16.7454 23.3943 15.3729 23.3943 13.726C23.3943 12.079 23.6779 10.7065 24.2452 9.60857C24.8308 8.5106 25.6176 7.68712 26.6058 7.13814C27.6123 6.58915 28.7377 6.31466 29.9821 6.31466C31.4094 6.31466 32.6721 6.62575 33.7701 7.24793C34.868 7.87012 35.7373 8.73934 36.3777 9.85561C37.0182 10.9536 37.3385 12.2437 37.3385 13.726C37.3385 15.2082 37.0182 16.5075 36.3777 17.6237C35.7373 18.74 34.868 19.6092 33.7701 20.2314C32.6721 20.8536 31.4094 21.1647 29.9821 21.1647ZM22.2688 26.3252V6.45191H24.7942V10.3771L24.6295 13.7534L24.904 17.1297V26.3252H22.2688ZM29.7625 18.859C30.6957 18.859 31.5284 18.6485 32.2604 18.2276C33.0106 17.8067 33.5962 17.212 34.0171 16.4434C34.4563 15.6565 34.6759 14.7507 34.6759 13.726C34.6759 12.6829 34.4563 11.7862 34.0171 11.0359C33.5962 10.2673 33.0106 9.67262 32.2604 9.25173C31.5284 8.83084 30.6957 8.62039 29.7625 8.62039C28.8475 8.62039 28.0149 8.83084 27.2646 9.25173C26.5326 9.67262 25.947 10.2673 25.5078 11.0359C25.087 11.7862 24.8765 12.6829 24.8765 13.726C24.8765 14.7507 25.087 15.6565 25.5078 16.4434C25.947 17.212 26.5326 17.8067 27.2646 18.2276C28.0149 18.6485 28.8475 18.859 29.7625 18.859ZM40.1559 21V0.632667H42.791V21H40.1559ZM65.1977 6.31466C66.3689 6.31466 67.4028 6.5434 68.2995 7.00089C69.1962 7.45838 69.8915 8.15376 70.3856 9.08703C70.898 10.0203 71.1542 11.2006 71.1542 12.628V21H68.5191V12.9299C68.5191 11.5209 68.1897 10.4595 67.5309 9.74581C66.8721 9.03213 65.948 8.67529 64.7585 8.67529C63.8802 8.67529 63.1116 8.85829 62.4528 9.22428C61.794 9.59027 61.2816 10.1301 60.9156 10.8438C60.568 11.5575 60.3941 12.445 60.3941 13.5064V21H57.759V12.9299C57.759 11.5209 57.4296 10.4595 56.7708 9.74581C56.1303 9.03213 55.2062 8.67529 53.9984 8.67529C53.1384 8.67529 52.3789 8.85829 51.7201 9.22428C51.0614 9.59027 50.549 10.1301 50.183 10.8438C49.817 11.5575 49.634 12.445 49.634 13.5064V21H46.9989V6.45191H49.5242V10.3222L49.1125 9.33408C49.57 8.3825 50.2745 7.64137 51.2261 7.11069C52.1776 6.58 53.2848 6.31466 54.5474 6.31466C55.9382 6.31466 57.1368 6.66235 58.1433 7.35773C59.1497 8.03481 59.8085 9.06873 60.1196 10.4595L59.0491 10.0203C59.4883 8.90404 60.2569 8.00736 61.3548 7.33028C62.4528 6.6532 63.7338 6.31466 65.1977 6.31466ZM81.6574 21.1647C80.1019 21.1647 78.7295 20.8445 77.54 20.204C76.3688 19.5635 75.4539 18.6851 74.7951 17.5688C74.1546 16.4526 73.8344 15.1716 73.8344 13.726C73.8344 12.2803 74.1455 10.9993 74.7676 9.88306C75.4081 8.76679 76.2773 7.89757 77.3753 7.27538C78.4916 6.6349 79.7451 6.31466 81.1359 6.31466C82.5449 6.31466 83.7893 6.62575 84.869 7.24793C85.9486 7.87012 86.7904 8.74849 87.3943 9.88306C88.0165 10.9993 88.3276 12.3077 88.3276 13.8083C88.3276 13.9181 88.3184 14.0462 88.3001 14.1926C88.3001 14.339 88.291 14.4762 88.2727 14.6043H75.8931V12.7103H86.9002L85.8297 13.3691C85.848 12.4358 85.6558 11.6032 85.2532 10.8712C84.8507 10.1393 84.2925 9.57197 83.5788 9.16938C82.8835 8.74849 82.0691 8.53805 81.1359 8.53805C80.2209 8.53805 79.4066 8.74849 78.6929 9.16938C77.9792 9.57197 77.4211 10.1484 77.0185 10.8987C76.6159 11.6307 76.4146 12.4724 76.4146 13.424V13.8632C76.4146 14.8331 76.6342 15.7023 77.0734 16.4709C77.5309 17.2212 78.1622 17.8067 78.9674 18.2276C79.7725 18.6485 80.6967 18.859 81.7397 18.859C82.5998 18.859 83.3775 18.7126 84.0729 18.4198C84.7866 18.127 85.4088 17.6878 85.9395 17.1022L87.3943 18.8041C86.7355 19.5726 85.912 20.1582 84.9239 20.5608C83.954 20.9634 82.8652 21.1647 81.6574 21.1647ZM96.159 21.1647C94.695 21.1647 93.5604 20.7713 92.7552 19.9844C91.9501 19.1975 91.5475 18.0721 91.5475 16.6081V3.26779H94.1826V16.4983C94.1826 17.2852 94.3748 17.8891 94.759 18.31C95.1616 18.7309 95.7289 18.9413 96.4609 18.9413C97.2844 18.9413 97.9706 18.7126 98.5196 18.2551L99.3431 20.1491C98.9405 20.4968 98.4555 20.753 97.8883 20.9177C97.3393 21.0823 96.7628 21.1647 96.159 21.1647ZM89.0771 8.62039V6.45191H98.3549V8.62039H89.0771Z" fill="white"/>
<path d="M102.337 21.1647C101.824 21.1647 101.385 20.9909 101.019 20.6432C100.653 20.2772 100.47 19.8197 100.47 19.2707C100.47 18.7217 100.653 18.2734 101.019 17.9257C101.385 17.578 101.824 17.4042 102.337 17.4042C102.831 17.4042 103.252 17.578 103.599 17.9257C103.965 18.2734 104.148 18.7217 104.148 19.2707C104.148 19.8197 103.965 20.2772 103.599 20.6432C103.252 20.9909 102.831 21.1647 102.337 21.1647Z" fill="#327BE5"/>
</svg>
