<svg width="154" height="113" viewBox="0 0 154 113" fill="none" xmlns="http://www.w3.org/2000/svg">
<path d="M0 2H153.25" stroke="white" stroke-width="2.79522" stroke-miterlimit="10"/>
<path d="M0 20.4999H12.793" stroke="white" stroke-width="6" stroke-miterlimit="10"/>
<path d="M25.5194 20.4999H38.3124" stroke="white" stroke-width="6" stroke-miterlimit="10"/>
<path d="M51.1053 20.4999H63.8317" stroke="white" stroke-width="6" stroke-miterlimit="10"/>
<path d="M76.6249 20.4999H89.4179" stroke="white" stroke-width="6" stroke-miterlimit="10"/>
<path d="M102.144 20.4999H114.937" stroke="white" stroke-width="6" stroke-miterlimit="10"/>
<path d="M127.73 20.4999H140.457" stroke="white" stroke-width="6" stroke-miterlimit="10"/>
<path d="M0 93.3787H76.6248" stroke="white" stroke-width="2.79522" stroke-miterlimit="10"/>
<path d="M0 77.229H12.793" stroke="white" stroke-width="6" stroke-miterlimit="10"/>
<path d="M25.5194 77.229H38.3124" stroke="white" stroke-width="6" stroke-miterlimit="10"/>
<path d="M51.1053 77.229H63.8317" stroke="white" stroke-width="6" stroke-miterlimit="10"/>
<path d="M103.047 109.39C99.723 111.049 95.8143 108.632 95.8143 104.916V82.7841C95.8143 79.0657 99.7288 76.6483 103.054 78.3135L125.186 89.3988C128.87 91.244 128.866 96.503 125.179 98.3431L103.047 109.39Z" stroke="#327BE5" stroke-width="2.79522" stroke-miterlimit="10"/>
</svg>
